<svg width="20" height="20" viewBox="0 0 20 20" fill="none" xmlns="http://www.w3.org/2000/svg">
<g id="lets-icons:setting-fill">
<path id="Vector" fill-rule="evenodd" clip-rule="evenodd" d="M11.6534 2.11768C11.7259 2.25852 11.7442 2.43935 11.7801 2.80102C11.8484 3.48435 11.8826 3.82602 12.0259 4.01435C12.1152 4.13128 12.2339 4.22249 12.3699 4.2787C12.5058 4.3349 12.6543 4.3541 12.8001 4.33435C13.0334 4.30352 13.3001 4.08602 13.8317 3.65102C14.1126 3.42018 14.2534 3.30518 14.4042 3.25685C14.5964 3.19546 14.8042 3.20583 14.9892 3.28602C15.1351 3.34935 15.2642 3.47768 15.5201 3.73435L16.2651 4.47935C16.5217 4.73602 16.6501 4.86435 16.7134 5.01018C16.7936 5.19523 16.804 5.40308 16.7426 5.59518C16.6942 5.74602 16.5792 5.88685 16.3492 6.16768C15.9134 6.70018 15.6959 6.96602 15.6642 7.20018C15.6447 7.34593 15.6641 7.49424 15.7205 7.63007C15.7768 7.76589 15.8681 7.88438 15.9851 7.97352C16.1726 8.11685 16.5151 8.15102 17.1992 8.21935C17.5601 8.25518 17.7409 8.27352 17.8826 8.34602C18.0613 8.43868 18.2004 8.5929 18.2742 8.78018C18.3334 8.92768 18.3334 9.10935 18.3334 9.47268V10.526C18.3334 10.8893 18.3334 11.071 18.2751 11.2177C18.201 11.4056 18.0612 11.5601 17.8817 11.6527C17.7409 11.7252 17.5601 11.7435 17.1984 11.7793C16.5151 11.8477 16.1734 11.8818 15.9851 12.0252C15.8681 12.1145 15.7769 12.2332 15.7207 12.3691C15.6645 12.5051 15.6453 12.6535 15.6651 12.7993C15.6967 13.0327 15.9142 13.2993 16.3492 13.831C16.5792 14.1118 16.6942 14.2518 16.7426 14.4035C16.804 14.5956 16.7936 14.8035 16.7134 14.9885C16.6501 15.1343 16.5217 15.2627 16.2651 15.5193L15.5201 16.2635C15.2634 16.521 15.1351 16.6493 14.9892 16.7118C14.8042 16.792 14.5964 16.8024 14.4042 16.741C14.2534 16.6927 14.1126 16.5777 13.8317 16.3477C13.2992 15.9127 13.0334 15.6952 12.8001 15.6643C12.6543 15.6446 12.5058 15.6638 12.3699 15.72C12.2339 15.7762 12.1152 15.8674 12.0259 15.9843C11.8826 16.1718 11.8484 16.5135 11.7801 17.1977C11.7442 17.5593 11.7259 17.7402 11.6534 17.881C11.5611 18.0604 11.4068 18.2001 11.2192 18.2743C11.0717 18.3327 10.8901 18.3327 10.5267 18.3327H9.47341C9.11008 18.3327 8.92841 18.3327 8.78175 18.2743C8.59388 18.2003 8.4393 18.0605 8.34675 17.881C8.27425 17.7402 8.25591 17.5593 8.22008 17.1977C8.15175 16.5143 8.11758 16.1727 7.97425 15.9843C7.88502 15.8675 7.76648 15.7764 7.63067 15.7202C7.49485 15.664 7.34659 15.6447 7.20091 15.6643C6.96675 15.6952 6.70091 15.9127 6.16841 16.3477C5.88758 16.5785 5.74675 16.6935 5.59591 16.7418C5.40381 16.8032 5.19596 16.7929 5.01091 16.7127C4.86508 16.6493 4.73591 16.521 4.48008 16.2643L3.73508 15.5193C3.47841 15.2627 3.35008 15.1343 3.28675 14.9885C3.20656 14.8035 3.1962 14.5956 3.25758 14.4035C3.30591 14.2527 3.42091 14.1118 3.65091 13.831C4.08675 13.2985 4.30425 13.0327 4.33508 12.7985C4.35468 12.6528 4.3354 12.5046 4.2792 12.3688C4.223 12.2329 4.13188 12.1144 4.01508 12.0252C3.82758 11.8818 3.48508 11.8477 2.80091 11.7793C2.44008 11.7435 2.25925 11.7252 2.11758 11.6527C1.93887 11.56 1.79974 11.4058 1.72591 11.2185C1.66675 11.071 1.66675 10.8893 1.66675 10.526V9.47268C1.66675 9.10935 1.66675 8.92768 1.72508 8.78102C1.79915 8.59315 1.93893 8.43857 2.11841 8.34602C2.25925 8.27352 2.44008 8.25518 2.80175 8.21935C3.48508 8.15102 3.82758 8.11685 4.01508 7.97352C4.13203 7.88438 4.22332 7.76589 4.27967 7.63007C4.33602 7.49424 4.35542 7.34593 4.33591 7.20018C4.30425 6.96602 4.08591 6.70018 3.65091 6.16685C3.42091 5.88602 3.30591 5.74602 3.25758 5.59435C3.1962 5.40224 3.20656 5.1944 3.28675 5.00935C3.35008 4.86435 3.47841 4.73518 3.73508 4.47852L4.48008 3.73435C4.73675 3.47768 4.86508 3.34852 5.01091 3.28602C5.19596 3.20583 5.40381 3.19546 5.59591 3.25685C5.74675 3.30518 5.88758 3.42018 6.16841 3.65018C6.70091 4.08518 6.96675 4.30268 7.20008 4.33435C7.34609 4.35416 7.49475 4.33491 7.63089 4.27855C7.76703 4.22219 7.8858 4.13074 7.97508 4.01352C8.11675 3.82602 8.15175 3.48435 8.22008 2.80018C8.25591 2.43935 8.27425 2.25852 8.34675 2.11685C8.43925 1.93783 8.5935 1.79839 8.78091 1.72435C8.92841 1.66602 9.11008 1.66602 9.47341 1.66602H10.5267C10.8901 1.66602 11.0717 1.66602 11.2184 1.72435C11.4063 1.79842 11.5609 1.93819 11.6534 2.11768ZM10.0001 13.3327C10.8841 13.3327 11.732 12.9815 12.3571 12.3564C12.9822 11.7312 13.3334 10.8834 13.3334 9.99935C13.3334 9.11529 12.9822 8.26745 12.3571 7.64233C11.732 7.0172 10.8841 6.66602 10.0001 6.66602C9.11603 6.66602 8.26818 7.0172 7.64306 7.64233C7.01794 8.26745 6.66675 9.11529 6.66675 9.99935C6.66675 10.8834 7.01794 11.7312 7.64306 12.3564C8.26818 12.9815 9.11603 13.3327 10.0001 13.3327Z" fill="#FBFBFB"/>
</g>
</svg>
