<svg width="20" height="20" viewBox="0 0 20 20" fill="none" xmlns="http://www.w3.org/2000/svg">
<g id="majesticons:logout">
<path id="Vector" fill-rule="evenodd" clip-rule="evenodd" d="M5 1.66602C4.33696 1.66602 3.70107 1.92941 3.23223 2.39825C2.76339 2.86709 2.5 3.50297 2.5 4.16602V15.8327C2.5 16.4957 2.76339 17.1316 3.23223 17.6004C3.70107 18.0693 4.33696 18.3327 5 18.3327H10C10.663 18.3327 11.2989 18.0693 11.7678 17.6004C12.2366 17.1316 12.5 16.4957 12.5 15.8327V4.16602C12.5 3.50297 12.2366 2.86709 11.7678 2.39825C11.2989 1.92941 10.663 1.66602 10 1.66602H5ZM13.5775 6.07685C13.7338 5.92062 13.9457 5.83286 14.1667 5.83286C14.3876 5.83286 14.5996 5.92062 14.7558 6.07685L18.0892 9.41018C18.2454 9.56646 18.3332 9.77838 18.3332 9.99935C18.3332 10.2203 18.2454 10.4322 18.0892 10.5885L14.7558 13.9218C14.5987 14.0736 14.3882 14.1576 14.1697 14.1557C13.9512 14.1538 13.7422 14.0662 13.5877 13.9117C13.4331 13.7572 13.3455 13.5482 13.3436 13.3297C13.3417 13.1112 13.4257 12.9007 13.5775 12.7435L15.4883 10.8327H8.33333C8.11232 10.8327 7.90036 10.7449 7.74408 10.5886C7.5878 10.4323 7.5 10.2204 7.5 9.99935C7.5 9.77833 7.5878 9.56637 7.74408 9.41009C7.90036 9.25381 8.11232 9.16602 8.33333 9.16602H15.4883L13.5775 7.25518C13.4213 7.09891 13.3335 6.88699 13.3335 6.66602C13.3335 6.44505 13.4213 6.23312 13.5775 6.07685Z" fill="#FBFBFB"/>
</g>
</svg>
