<svg width="20" height="20" viewBox="0 0 20 20" fill="none" xmlns="http://www.w3.org/2000/svg">
<g id="tabler:user-filled">
<path id="Vector" d="M10.0001 1.66602C10.8242 1.66602 11.6298 1.91039 12.315 2.36823C13.0002 2.82606 13.5342 3.47681 13.8496 4.23817C14.1649 4.99953 14.2475 5.8373 14.0867 6.64556C13.9259 7.45381 13.5291 8.19624 12.9464 8.77896C12.3636 9.36168 11.6212 9.75852 10.813 9.91929C10.0047 10.0801 9.16693 9.99755 8.40557 9.68218C7.64421 9.36682 6.99346 8.83276 6.53562 8.14756C6.07779 7.46235 5.83341 6.65677 5.83341 5.83268L5.83758 5.65185C5.88418 4.57914 6.34309 3.56583 7.1186 2.82323C7.89411 2.08063 8.92636 1.66608 10.0001 1.66602ZM11.6667 11.666C12.7718 11.666 13.8316 12.105 14.613 12.8864C15.3944 13.6678 15.8334 14.7276 15.8334 15.8327V16.666C15.8334 17.108 15.6578 17.532 15.3453 17.8445C15.0327 18.1571 14.6088 18.3327 14.1667 18.3327H5.83341C5.39139 18.3327 4.96746 18.1571 4.6549 17.8445C4.34234 17.532 4.16675 17.108 4.16675 16.666V15.8327C4.16675 14.7276 4.60573 13.6678 5.38714 12.8864C6.16854 12.105 7.22835 11.666 8.33342 11.666H11.6667Z" fill="#F4F4F0"/>
</g>
</svg>
